# xmcd
#
# Track frame offsets: 
#        150
#        14413
#        28451
#        51798
#        69851
#        95633
#        110339
#        122444
#        140717
#        158252
#        179533
#        194522
#        205809
#        224119
#
# Disc length: 3211 seconds
#
# Revision: 0
# Processed by: cddbd v1.5.1PL2 Copyright (c) Steve Scherf et al.
# Submitted via: ExactAudioCopy v0.95b4
#
DISCID=cf0c890e
DTITLE=Johnny Cash - Southern Accents
DYEAR=1996
DGENRE=Country
TTITLE0=Folsom Prison Blues
TTITLE1=Get Rhythm
TTITLE2=Sunday Morning Coming Down
TTITLE3=Ghost Riders In The Sky
TTITLE4=Oh Bury Me Not
TTITLE5=I Never Picked Cotton
TTITLE6=Unchained
TTITLE7=Row Boat
TTITLE8=Rusty Cage
TTITLE9=Southern Accents
TTITLE10=Memories Are Made Of This
TTITLE11=Ring Of Fire
TTITLE12=I Walk The Line
TTITLE13=Jesus In My Soul
EXTD=
EXTT0=
EXTT1=
EXTT2=
EXTT3=
EXTT4=
EXTT5=
EXTT6=
EXTT7=
EXTT8=
EXTT9=
EXTT10=
EXTT11=
EXTT12=
EXTT13=
PLAYORDER=
